<svg xmlns="http://www.w3.org/2000/svg" width="500" height="500" xmlns:v="https://vecta.io/nano"><style>.Q,.J{mix-blend-mode:multiply}.A{isolation:isolate}</style><g class="A"><path d="M0 0h500v500H0z" fill="#fff" opacity=".14"/><path d="M368.81 128.193h11.802c10.165 0 18.411-9.697 18.411-21.659v-2.165c0-11.962-8.246-21.659-18.411-21.659H134.999c-10.168 0-18.411 9.697-18.411 21.659v2.165c0 11.962 8.242 21.659 18.411 21.659h48.176c8.302 0 15.035 7.917 15.035 17.687s-6.734 17.686-15.035 17.686h-57.687c-8.983 0-16.262 8.567-16.262 19.132s7.279 19.131 16.262 19.131h13.502c10.168 0 18.411 9.697 18.411 21.658v.721c0 11.963-8.243 21.659-18.411 21.659h-5.83c-6.442 0-11.663 6.142-11.663 13.717s5.222 13.719 11.663 13.719c0 0 4.22-.073 5.639.027 7.179.507 11.545 4.834 11.545 11.43v8.312c0 6.596-4.836 12.224-11.663 14.51-2.089.699-4.363 1.095-6.748 1.095h-.921c-9.869 0-17.869 9.697-17.869 21.659v2.164c0 11.961 7.999 21.66 17.869 21.66h18.717c10.168 0 18.411 6.986 18.411 15.604v4.163c0 8.618-8.243 15.607-18.411 15.607h-11.048v.073c-9.591.746-17.184 10.111-17.184 21.587v.72c0 11.962 8.243 21.656 18.411 21.656h238.111c10.168 0 18.411-9.694 18.411-21.656v-.72c0-11.964-8.242-21.66-18.411-21.66h-38.97c-8.302 0-15.035-7.921-15.035-17.69s6.734-17.684 15.035-17.684h30.988v-.043c9.55-.436 17.187-9.934 17.187-21.616v-2.164c0-11.682-7.638-21.182-17.187-21.618v-.042h-20.556c-10.168 0-18.411-6.987-18.411-15.605v-4.163c0-8.618 8.243-15.606 18.411-15.606h23.014c6.438 0 11.66-6.143 11.66-13.719s-5.222-13.717-11.66-13.717h-22.092c-10.168 0-18.411-9.696-18.411-21.659v-.721c0-11.961 8.243-21.658 18.411-21.658h19.634v-.186c7.964-1.238 14.118-9.238 14.118-18.945s-6.153-17.706-14.118-18.945v-.187h-1.227c-10.165 0-18.407-6.986-18.407-15.604v-4.163c0-8.619 8.242-15.605 18.407-15.605z" fill="#d6daee"/><path d="M134.999 82.71c-10.168 0-18.411 9.697-18.411 21.659v2.165c0 11.962 8.242 21.659 18.411 21.659h48.176c8.302 0 15.035 7.917 15.035 17.687s-6.734 17.686-15.035 17.686h-57.687c-8.983 0-16.262 8.567-16.262 19.132s7.279 19.131 16.262 19.131h13.502c10.168 0 18.411 9.697 18.411 21.658v.721c0 11.963-8.243 21.659-18.411 21.659h-5.83c-6.442 0-11.663 6.142-11.663 13.717s5.222 13.719 11.663 13.719c0 0 4.22-.073 5.639.027 7.179.507 11.545 4.834 11.545 11.43v8.312c0 6.596-4.836 12.224-11.663 14.51-2.089.699-4.363 1.095-6.748 1.095h-.921c-9.869 0-17.869 9.697-17.869 21.659v2.164c0 11.961 7.999 21.66 17.869 21.66h18.717c10.168 0 18.411 6.986 18.411 15.604v4.163c0 8.618-8.243 15.607-18.411 15.607h-11.048v.073c-9.591.746-17.184 10.111-17.184 21.587v.72c0 11.962 8.243 21.656 18.411 21.656h118.788V82.71H134.999z" fill="#e7ebf7"/><path d="M236.711 213.908h-14.903c-.751 2.187-6.967 6.661-12.101 6.661h-8.173c-7.321 0-13.363-5.367-14.455-12.38-.89-1.863-1.408-3.941-1.408-6.145v-1.122c0-2.07.452-4.034 1.248-5.81.219-5.252 3.195-9.788 7.53-12.188v-.003c.014-.007.031-.015.045-.022.077-.043.16-.083.243-.124 8.329-4.245 6.922-6.054 6.922-17.668 0-11.745 10.899-14.167 10.899-11.138v18.891c0 6.417 10.412 15.99 10.412 15.99h13.742v25.058z" fill="#ed9d88"/><g fill="#f7b297"><path d="M182.285 218.513a4.6 4.6 0 0 0 4.599 4.602h9.567c2.541 0 4.606-2.059 4.606-4.602h0a4.61 4.61 0 0 0-4.606-4.604h-9.567c-2.541 0-4.599 2.062-4.599 4.604h0zm-3.751-30.639a5.69 5.69 0 0 0 5.687 5.694h12.23c3.146 0 5.694-2.55 5.694-5.694h0c0-3.142-2.548-5.691-5.694-5.691h-12.23a5.69 5.69 0 0 0-5.687 5.691h0z"/><path d="M202.146 209.431a5.45 5.45 0 0 0-5.451-5.451h-11.688a5.45 5.45 0 0 0-5.447 5.451h0a5.45 5.45 0 0 0 5.447 5.451h11.688a5.45 5.45 0 0 0 5.451-5.451h0zm-24.085-10.67a5.19 5.19 0 0 0 5.19 5.189h12.612c2.865 0 5.194-2.324 5.194-5.189h0c0-2.869-2.329-5.193-5.194-5.193h-12.612a5.19 5.19 0 0 0-5.19 5.193h0z"/></g><path d="M321.034 311.563c0-49.964-37.465-91.172-85.835-97.081v-26.536c62.974 6.029 112.217 59.068 112.217 123.617 0 2.981-.108 5.932-.32 8.865h-26.466c.261-2.923.403-5.88.403-8.865z" fill="#f27174"/><path d="M235.199 200.675v13.807c48.37 5.909 85.835 47.117 85.835 97.081 0 2.984-.143 5.941-.403 8.865h13.982c-.914-59.247-43.291-108.407-99.414-119.753z" fill="#db576a"/><g fill="#2c3077"><path d="M182.88 320.285h168.698v112.226H182.88z"/><path class="J" d="M182.88 320.285h94.356v112.226H182.88z" opacity=".3"/></g><path d="M218.624 366.665h57.722v15.811h-57.722zm59.501 0h73.452v15.811h-73.452z" fill="#fff"/><path d="M160.944 228.214h139.392v92.214H160.944z" fill="#7db6e3"/><path d="M241.721 228.214h58.615v92.214h-58.615z" opacity=".2" fill="#2c3077"/><path d="M242.611 268.742h12.692v9.428h-12.692zm-81.667 0h79.887v9.428h-79.887z" fill="#fff"/><path d="M289.156 95.145c0 16.822-30.46 50.04-30.46 50.04s-30.46-33.218-30.46-50.04 13.638-30.461 30.46-30.461 30.46 13.638 30.46 30.461z" fill="#4454a5"/><path d="M270.119 95.145c0 6.308-5.114 11.423-11.423 11.423s-11.423-5.115-11.423-11.423 5.114-11.423 11.423-11.423 11.423 5.115 11.423 11.423z" fill="#272369"/><path class="Q" d="M258.696 64.684v19.037c6.31 0 11.423 5.115 11.423 11.423s-5.114 11.423-11.423 11.423v38.617s30.46-33.218 30.46-50.04-13.638-30.461-30.46-30.461z" fill="#1974ba" opacity=".3"/></g></svg>