<svg xmlns="http://www.w3.org/2000/svg" width="500" height="500" xmlns:v="https://vecta.io/nano"><style>.I,.L,.N,.G{mix-blend-mode:multiply}.A{isolation:isolate}</style><g class="A" fill="none"><path d="M0 0h500v500H0z" fill="#fff" opacity=".14"/><path d="M377.668 93.434h13.154c11.337 0 20.526-10.811 20.526-24.148v-2.414c0-13.337-9.19-24.147-20.526-24.147H116.995c-11.337 0-20.526 10.811-20.526 24.147v2.414c0 13.337 9.19 24.148 20.526 24.148h53.709c9.257 0 16.763 8.827 16.763 19.719s-7.506 19.718-16.763 19.718h-64.315c-10.013 0-18.131 9.551-18.131 21.331s8.118 21.329 18.131 21.329h15.053c11.337 0 20.526 10.811 20.526 24.146v.804c0 13.338-9.189 24.147-20.526 24.147h-6.5c-7.182 0-13.001 6.848-13.001 15.293s5.82 15.295 13.001 15.295c0 0 4.707-.082 6.287.03 8.005.565 12.871 5.389 12.871 12.744v9.267c0 7.354-5.391 13.628-13.001 16.177-2.331.779-4.866 1.221-7.525 1.221h-1.027c-11.004 0-19.922 10.811-19.922 24.148v2.413c0 13.335 8.918 24.148 19.922 24.148h20.867c11.337 0 20.526 7.788 20.526 17.396v4.641c0 9.608-9.189 17.4-20.526 17.4h-12.315v.081c-10.695.831-19.158 11.273-19.158 24.067v.802c0 13.337 9.19 24.144 20.526 24.144h265.468c11.333 0 20.526-10.807 20.526-24.144v-.802c0-13.339-9.193-24.148-20.526-24.148h-43.447c-9.259 0-16.763-8.831-16.763-19.722s7.504-19.716 16.763-19.716h34.549v-.048c10.647-.486 19.162-11.075 19.162-24.1v-2.413c0-13.025-8.515-23.615-19.162-24.102v-.046h-22.918c-11.337 0-20.526-7.789-20.526-17.398v-4.641c0-9.608 9.189-17.399 20.526-17.399h25.654c7.182 0 13.003-6.849 13.003-15.295s-5.821-15.293-13.003-15.293h-24.627c-11.337 0-20.526-10.81-20.526-24.147v-.804c0-13.336 9.189-24.146 20.526-24.146h21.891v-.207c8.879-1.381 15.739-10.3 15.739-21.122s-6.86-19.74-15.739-21.122v-.208h-1.368c-11.337 0-20.526-7.788-20.526-17.397v-4.641c0-9.609 9.189-17.398 20.526-17.398z" fill="#d6daee"/><path d="M116.995 42.726c-11.337 0-20.526 10.811-20.526 24.147v2.414c0 13.337 9.19 24.148 20.526 24.148h53.709c9.257 0 16.763 8.827 16.763 19.719s-7.506 19.718-16.763 19.718h-64.315c-10.013 0-18.131 9.551-18.131 21.331s8.118 21.329 18.131 21.329h15.053c11.337 0 20.526 10.811 20.526 24.146v.804c0 13.338-9.189 24.147-20.526 24.147h-6.5c-7.182 0-13.001 6.848-13.001 15.293s5.82 15.295 13.001 15.295c0 0 4.707-.082 6.287.03 8.005.565 12.871 5.389 12.871 12.744v9.267c0 7.354-5.391 13.628-13.001 16.177-2.331.779-4.866 1.221-7.525 1.221h-1.027c-11.004 0-19.922 10.811-19.922 24.148v2.413c0 13.335 8.918 24.148 19.922 24.148h20.867c11.337 0 20.526 7.788 20.526 17.396v4.641c0 9.608-9.189 17.4-20.526 17.4h-12.315v.081c-10.695.831-19.158 11.273-19.158 24.067v.802c0 13.337 9.19 24.144 20.526 24.144h132.436V42.726H116.995z" fill="#e7ebf7"/><path d="M233.262 344.234H129.004l4.654-121.974h95.886l3.719 121.974z" fill="#7db6e3"/><g fill="#2c3077"><path d="M246.386 344.234H142.131l4.651-121.974h95.887l3.717 121.974z"/><path d="M166.601 223.253a.99.99 0 0 1-.988-.921l-.182-4.929c0-21.942 10.89-39.793 24.276-39.793s24.269 17.851 24.269 39.793c0 1.619-.059 3.232-.175 4.793-.041.546-.504.954-1.063.916a.99.99 0 0 1-.916-1.063c.113-1.512.17-3.075.17-4.646 0-20.848-9.997-37.808-22.285-37.808s-22.292 16.96-22.292 37.808c0 1.543.059 3.155.176 4.788a.99.99 0 0 1-.918 1.06.87.87 0 0 1-.072.003z"/><path d="M162.02 223.253a.99.99 0 0 1-.988-.918l-.184-4.932c0-21.942 10.889-39.793 24.273-39.793s24.273 17.851 24.273 39.793c0 1.56-.058 3.171-.174 4.791-.039.546-.494.95-1.06.919a.99.99 0 0 1-.919-1.06 65.99 65.99 0 0 0 .169-4.649c0-20.848-9.999-37.808-22.289-37.808s-22.289 16.96-22.289 37.808a64.56 64.56 0 0 0 .178 4.785.99.99 0 0 1-.916 1.063c-.025.002-.049.003-.075.003z"/><path class="G" d="M242.669 222.261h-62.587l65.272 88.119-2.685-88.119z" opacity=".3"/></g><g fill="#f26e6e"><path d="M333.147 433.036H160.191l6.833-179.13h160.658l5.465 179.13z"/><path class="I" d="M332.581 433.036H179.467l6.833-179.13h140.812l5.469 179.13z" opacity=".4"/></g><g fill="#2c3077"><path d="M215.409 254.899a.99.99 0 0 1-.988-.918l-.273-7.209c0-31.966 15.784-57.972 35.185-57.972s35.184 26.007 35.184 57.972c0 2.353-.089 4.71-.256 7.004-.043.547-.539.944-1.066.916a.99.99 0 0 1-.915-1.063c.167-2.245.252-4.551.252-6.856 0-30.872-14.895-55.988-33.2-55.988s-33.201 25.116-33.201 55.988a94.44 94.44 0 0 0 .267 7.06.99.99 0 0 1-.915 1.064.96.96 0 0 1-.076.003z"/><path d="M208.677 254.899a.99.99 0 0 1-.988-.918l-.27-7.209c0-31.966 15.783-57.972 35.184-57.972s35.179 26.007 35.179 57.972c0 2.38-.085 4.735-.252 7.003-.039.547-.562.945-1.062.917-.546-.04-.957-.516-.919-1.062a94.18 94.18 0 0 0 .248-6.857c0-30.872-14.891-55.988-33.194-55.988s-33.2 25.116-33.2 55.988a94.88 94.88 0 0 0 .265 7.06.99.99 0 0 1-.915 1.064c-.025.002-.05.003-.076.003z"/></g><path class="I" d="M332.581 433.036l-5.469-179.13H186.3l-.439 11.495 124.17 167.635h22.549z" opacity=".4" fill="#f26e6e"/><path d="M298.815 291.632h70.931v148.253h-70.931z" fill="#98c03c"/><path d="M362.75 422.789V308.734a11.03 11.03 0 0 1-11.023-11.031h-34.89c0 6.091-4.938 11.031-11.03 11.031v114.055a11.03 11.03 0 0 1 11.03 11.025h34.89c0-6.091 4.934-11.025 11.023-11.025zm-7.957-56.284v-1.486c.008.244.039.492.039.74 0 .254-.031.494-.039.746zm-23.949.314c-.748 1.733-1.384 2.841-2.81 2.841-1.403 0-2.306-.975-2.554-2.841h5.364zm3.438-21.608c10.988 0 19.937 8.63 20.495 19.484h-6.368c-.636-4.827-3.957-8.116-8.054-8.116-4.008 0-6.372 2.699-7.511 5.527l-1.097 2.589h-6.236c.302-1.959 1.318-4.004 2.733-5.67l-4.263-3.543c-2.384 2.537-3.663 5.918-3.876 9.213h-6.318c.554-10.854 9.503-19.484 20.495-19.484zm4.166 19.484c.558-1.11 1.19-1.823 2.248-1.823 1.089 0 1.849.688 2.221 1.823h-4.469zm-24.681.393v1.343c-.008-.225-.035-.448-.035-.673s.027-.446.035-.671zm.019 1.731h6.318c.45 5.843 4.159 9.219 8.437 9.219 3.88 0 6.124-2.112 7.465-5.449l1.438-3.544c.031-.079.062-.149.089-.225h5.608c-.109 1.975-.86 3.566-2.155 5.25l3.93 3.165c2.248-2.254 3.469-5.383 3.581-8.414h6.279c-.554 10.85-9.507 19.491-20.495 19.491-10.996 0-19.945-8.641-20.495-19.491z" fill="#efed83"/><path class="L" d="M369.746 291.632h-70.931v8.829l70.931 114.054V291.632z" fill="#98c03c" opacity=".2"/><path d="M212.801 372.617h108.387a6.5 6.5 0 0 1 6.494 6.494v64.865a6.5 6.5 0 0 1-6.496 6.496H212.799c-3.583 0-6.492-2.909-6.492-6.492v-64.869a6.5 6.5 0 0 1 6.494-6.494z" fill="#e7ebf7"/><path d="M206.307 404.532h121.375v8.688H206.307z" fill="#2c3077"/><g fill="#5a5c79"><rect x="214.697" y="380.287" width="24.243" height="16.453" rx="6.494"/><path d="M264.309 430.374a.37.37 0 0 1-.368.372h-50.117c-.205 0-.372-.169-.372-.372h0a.37.37 0 0 1 .372-.37h50.117c.205 0 .368.163.368.37h0zm0 3.054a.37.37 0 0 1-.368.372h-50.117c-.205 0-.372-.167-.372-.372h0c0-.205.167-.372.372-.372h50.117a.37.37 0 0 1 .368.372h0zm0 3.054c0 .207-.163.37-.368.37h-50.117a.37.37 0 0 1-.372-.37h0a.37.37 0 0 1 .372-.37h50.117c.205 0 .368.166.368.37h0z"/></g><g class="N" opacity=".5"><path d="M327.682 443.978v-64.865a6.49 6.49 0 0 0-6.492-6.496h-77.502l80.855 76.898c1.876-1.14 3.14-3.182 3.14-5.537z" fill="#d6daee"/></g><path d="M255.268 47.214h75.658c12.732 0 23.057 10.321 23.057 23.054v34.582c0 12.734-10.325 23.055-23.057 23.055h-78.383l-20.33 18.443v-76.08c0-12.733 10.323-23.054 23.055-23.054z" fill="#fff"/><path d="M293.098 122.724l-4.294-7.522-6.318 5.92-1.888-8.452-7.783 3.797.694-8.632-8.562 1.331 3.205-8.046-8.569-1.248 5.434-6.743-7.823-3.718 7.184-4.844-6.38-5.858 8.286-2.511-4.368-7.478 8.663.043-1.969-8.433 8.263 2.593.605-8.64 7.128 4.916 3.124-8.077 5.368 6.799 5.364-6.799 3.128 8.079 7.132-4.916.597 8.638 8.263-2.593-1.965 8.435 8.659-.045-4.368 7.478 8.29 2.511-6.379 5.858 7.178 4.844-7.818 3.718 5.434 6.744-8.577 1.247 3.209 8.049-8.558-1.334.694 8.632-7.786-3.797-1.884 8.453-6.318-5.922-4.294 7.523z" fill="#2c3077"/><path d="M308.947 72.715L287.122 89.75l-8.48-10.808-6.415 5.019 12.333 15.737 1.066 1.208.174.222 28.165-21.993-5.019-6.419z" fill="#7db6e3"/></g></svg>