<svg xmlns="http://www.w3.org/2000/svg" width="500" height="500" xmlns:v="https://vecta.io/nano"><style>.Q,.I,.M{mix-blend-mode:multiply}.A{isolation:isolate}</style><g class="A"><path d="M0 0h500v500H0z" fill="#fff" opacity=".14"/><path d="M379.714 102.706h13.347c11.499 0 20.823-10.968 20.823-24.497V75.76c0-13.53-9.324-24.497-20.823-24.497H115.269c-11.501 0-20.823 10.967-20.823 24.497v2.449c0 13.53 9.323 24.497 20.823 24.497h54.486c9.391 0 17.005 8.955 17.005 20.004s-7.614 20.003-17.005 20.003h-65.246c-10.158 0-18.393 9.689-18.393 21.639s8.235 21.638 18.393 21.638h15.271c11.501 0 20.823 10.967 20.823 24.496v.816c0 13.531-9.322 24.497-20.823 24.497h-6.594c-7.286 0-13.19 6.947-13.19 15.514s5.904 15.516 13.19 15.516c0 0 4.775-.083 6.377.03 8.121.573 13.058 5.467 13.058 12.928v9.401c0 7.461-5.469 13.825-13.19 16.412a24.07 24.07 0 0 1-7.634 1.239h-1.042c-11.163 0-20.21 10.968-20.21 24.497v2.448c0 13.528 9.047 24.498 20.21 24.498h21.169c11.501 0 20.823 7.901 20.823 17.648v4.708c0 9.747-9.322 17.652-20.823 17.652h-12.494v.083c-10.85.843-19.435 11.436-19.435 24.415v.814c0 13.53 9.323 24.493 20.823 24.493H390.13c11.499 0 20.823-10.964 20.823-24.493v-.814c0-13.532-9.325-24.498-20.823-24.498h-44.076c-9.391 0-17.005-8.959-17.005-20.007s7.614-20.001 17.005-20.001h35.049v-.049c10.801-.493 19.439-11.235 19.439-24.448v-2.448c0-13.213-8.638-23.957-19.439-24.45v-.047h-23.249c-11.501 0-20.823-7.902-20.823-17.65v-4.708c0-9.747 9.322-17.651 20.823-17.651h26.027c7.284 0 13.19-6.948 13.19-15.516s-5.906-15.514-13.19-15.514h-24.985c-11.501 0-20.823-10.966-20.823-24.497v-.816c0-13.529 9.323-24.496 20.823-24.496h22.207v-.21c9.008-1.401 15.967-10.449 15.967-21.428s-6.96-20.026-15.967-21.428v-.211h-1.388c-11.499 0-20.821-7.901-20.821-17.649v-4.708c0-9.748 9.323-17.65 20.821-17.65z" fill="#d6daee"/><path d="M115.269 51.263c-11.501 0-20.823 10.967-20.823 24.497v2.449c0 13.53 9.323 24.497 20.823 24.497h54.486c9.391 0 17.005 8.955 17.005 20.004s-7.614 20.003-17.005 20.003h-65.246c-10.158 0-18.393 9.689-18.393 21.639s8.235 21.638 18.393 21.638h15.271c11.501 0 20.823 10.967 20.823 24.496v.816c0 13.531-9.322 24.497-20.823 24.497h-6.594c-7.286 0-13.19 6.947-13.19 15.514s5.904 15.516 13.19 15.516c0 0 4.775-.083 6.377.03 8.121.573 13.058 5.467 13.058 12.928v9.401c0 7.461-5.469 13.825-13.19 16.412a24.07 24.07 0 0 1-7.634 1.239h-1.042c-11.163 0-20.21 10.968-20.21 24.497v2.448c0 13.528 9.047 24.498 20.21 24.498h21.169c11.501 0 20.823 7.901 20.823 17.648v4.708c0 9.747-9.322 17.652-20.823 17.652h-12.494v.083c-10.85.843-19.435 11.436-19.435 24.415v.814c0 13.53 9.323 24.493 20.823 24.493h134.352V51.263H115.269z" fill="#e7ebf7"/><path d="M196.382 176.045h139.514v92.809H196.382z" fill="#7db6e3"/><path d="M196.382 176.045h78.033v92.809h-78.033z" fill="#2c3077"/><path d="M225.942 214.401h47.466v13.075h-47.466zm49.479 0h60.474v13.075h-60.474z" fill="#fff"/><g fill="#f26e6e"><path d="M178.241 99.904h115.275v76.26H178.241z"/><path class="I" d="M245.043 99.904h48.474v76.26h-48.474z" opacity=".4"/></g><path d="M178.241 133.419h65.961v7.798h-65.961zm67.642 0h10.392v7.798h-10.392z" fill="#fff"/><path d="M245.043 132.578a.84.84 0 0 0-.84.84h1.681a.84.84 0 0 0-.84-.84zm0 9.479a.84.84 0 0 0 .84-.84h-1.681a.84.84 0 0 0 .84.84z" fill="#5c5c5c"/><path d="M142.696 287.961h204.677v129.204H142.696z" fill="#2f3352"/><path d="M152.831 298.832h184.409v107.457H152.831z" fill="#e7eaf6"/><path class="M" d="M325.167 298.832v100.93H152.831v6.527h172.336 12.073v-6.527-100.93h-12.073z" fill="#e7ebf7"/><path d="M278.331 239.687c5.248-1.499 3.196 10.073-12.3 17.356s-10.519 11.97-3.293 11.461 22.069 1.457 22.069 1.457 18.805-7.811 26.466-15.133 16.472.145 6.576 8.74-24.938 19.999-28.116 20.862-32.15 3.695-37.016 5.226-9.305 11.096-9.305 11.096l-24.306-13.07s4.624-17.657 8.769-23.986 36.06-19.889 50.455-24.009z" fill="#f7b297"/><path d="M174.38 410.679l42.202-124.145 31.558 10.976-35.038 113.169H174.38z" fill="#f27174"/><path d="M216.582 286.535L174.38 410.679h14.766l42.066-119.057-14.631-5.088z" fill="#db576a"/><path class="Q" d="M311.273 254.829c-7.661 7.322-26.466 15.133-26.466 15.133s-11.641-1.54-19.324-1.54c-.992 0-1.919.026-2.744.084a14.83 14.83 0 0 1-1.056.037c-6.612 0-10.376-4.574 4.349-11.499 14.571-6.848 17.255-17.489 13.161-17.489-.26 0-.548.043-.861.133-14.395 4.12-46.309 17.683-50.455 24.009s-8.769 23.986-8.769 23.986l1.508.811.854-1.826c1.212-4.372 4.864-16.941 8.091-21.867 3.625-5.531 34.264-18.867 49.324-23.177.011-.003.023-.006.033-.009.011.731-.421 2.509-2.238 4.907-1.767 2.334-5.199 5.737-11.506 8.701-8.358 3.931-12.032 7.578-11.234 11.151.576 2.58 3.544 4.182 7.743 4.182.391 0 .791-.014 1.196-.042a38.12 38.12 0 0 1 2.604-.079c7.46 0 18.945 1.508 19.06 1.523l.537.071s.38-.147.5-.207c20.079-10.222 25.694-16.992 25.694-16.992z" fill="#f7b297" opacity=".3"/><path d="M368.159 422.312h0c0 5.831-4.726 10.553-10.553 10.553H132.464c-5.828 0-10.554-4.722-10.554-10.553h246.25z" fill="#2f3352"/><path d="M372.429 421.376c0 2.332-1.887 4.219-4.213 4.219h-246.36c-2.328 0-4.215-1.887-4.215-4.219h0c0-2.324 1.887-4.211 4.215-4.211h246.36c2.326 0 4.213 1.887 4.213 4.211h0z" fill="#5a5c79"/><path d="M152.831 406.289h65.055v10.876h-65.055z" fill="#2f3352"/><path d="M369.671 337.305h-41.638a12.69 12.69 0 0 0-12.687 12.688v19.03a12.69 12.69 0 0 0 12.687 12.686h43.136l11.19 10.15v-41.867a12.69 12.69 0 0 0-12.687-12.688z" fill="#7db6e3"/><path d="M363.556 316.171h-69.355a12.69 12.69 0 0 0-12.686 12.686v50.114l10.737-9.741c.638.098 1.284.165 1.949.165h69.355c7.009 0 12.687-5.678 12.687-12.686v-27.851a12.69 12.69 0 0 0-12.687-12.686z" fill="#fff"/><path d="M366.467 328.857a1.27 1.27 0 0 1-1.269 1.27h-66.102a1.27 1.27 0 0 1-1.269-1.27h0c0-.702.566-1.268 1.269-1.268h66.102a1.27 1.27 0 0 1 1.269 1.268h0zm0 9.765a1.27 1.27 0 0 1-1.269 1.268h-66.102c-.703 0-1.269-.566-1.269-1.268h0a1.27 1.27 0 0 1 1.269-1.27h66.102a1.27 1.27 0 0 1 1.269 1.27h0zm0 9.767a1.27 1.27 0 0 1-1.269 1.268h-66.102a1.27 1.27 0 0 1-1.269-1.268h0a1.27 1.27 0 0 1 1.269-1.27h66.102a1.27 1.27 0 0 1 1.269 1.27h0zm0 9.767a1.27 1.27 0 0 1-1.269 1.268h-66.102a1.27 1.27 0 0 1-1.269-1.268h0c0-.704.566-1.27 1.269-1.27h66.102a1.27 1.27 0 0 1 1.269 1.27h0z" fill="#d6daee"/><circle cx="332.993" cy="81.686" r="35.849" fill="#2c3077"/><path d="M341.434 67.701l-1.622 1.887-.769.91-1.444 1.788-.836 1.041-1.71 2.165-.096-6.21-.158-5.377-.086-1.746-.199-3.625c-.037-.51-.461-.904-.973-.904s-.936.394-.972.904l-.205 3.731-.24 7.021-.105 10.729.002 1.673a.98.98 0 0 0 .674.927.97.97 0 0 0 .302.047c.306 0 .601-.144.788-.401l.983-1.348 4.216-5.944.74-1.09 1.308-1.937.665-1.033 1.298-2.053a.98.98 0 0 0-.256-1.287.98.98 0 0 0-1.305.131z" fill="#7db6e3"/><path d="M332.666 48.867h.655c.539 0 .976.437.976.976v3.938c0 .538-.437.975-.975.975h-.656c-.539 0-.976-.437-.976-.976v-3.937c0-.539.437-.976.976-.976zm0 59.754h.655c.539 0 .976.437.976.976v3.935c0 .538-.437.975-.975.975h-.657c-.538 0-.975-.437-.975-.975v-3.935c0-.539.437-.976.976-.976zm28.233-28.236h3.938c.539 0 .976.437.976.976v.655c0 .539-.437.976-.976.976h-3.939c-.538 0-.975-.437-.975-.975v-.655c0-.539.437-.976.976-.976zm-59.75 0h3.935c.538 0 .975.437.975.975v.656c0 .539-.437.976-.976.976h-3.934c-.539 0-.976-.437-.976-.976v-.654c0-.539.437-.976.976-.976zM356.08 58.36c-.382-.378-.997-.377-1.377.003l-2.784 2.784a.97.97 0 0 0-.286.692.98.98 0 0 0 .289.69l.235.233a.97.97 0 0 0 1.376-.003l2.784-2.784a.97.97 0 0 0 .286-.692.98.98 0 0 0-.289-.69l-.234-.233zm-42.252 42.253c-.381-.378-.996-.377-1.377.003l-2.782 2.782a.97.97 0 0 0-.286.692.98.98 0 0 0 .289.69l.234.233a.97.97 0 0 0 1.377-.003l2.782-2.782a.97.97 0 0 0 .286-.692.98.98 0 0 0-.289-.69l-.234-.233zm39.705.003c-.378-.379-.992-.381-1.374-.006l-.234.231c-.186.182-.291.432-.292.691a.98.98 0 0 0 .286.694l2.784 2.784a.97.97 0 0 0 1.377.003l.234-.233a.98.98 0 0 0 .289-.69c.001-.259-.103-.509-.286-.692l-2.784-2.782zm-42.25-42.252a.98.98 0 0 0-1.376-.005l-.234.232a.98.98 0 0 0-.29.691c-.001.259.102.509.286.693l2.782 2.783a.97.97 0 0 0 1.377.003l.234-.233a.98.98 0 0 0 .289-.69.97.97 0 0 0-.286-.692l-2.782-2.782z" fill="#fff"/></g></svg>