<svg xmlns="http://www.w3.org/2000/svg" xmlns:xlink="http://www.w3.org/1999/xlink" width="3710" height="3710" xmlns:v="https://vecta.io/nano"><style>.v,.AF,.f,.m,.e,.AL,.AJ{mix-blend-mode:multiply}.G{mix-blend-mode:soft-light}.B{isolation:isolate}</style><defs><linearGradient id="A" x1="1032.577" y1="598.19" x2="1305.542" y2="1460.148" xlink:href="#AL"><stop offset="0" stop-color="#006d89"/><stop offset="1" stop-color="#5673b8"/></linearGradient><clipPath id="B"><path d="M1135.964 1409.038l201.459 49.127c18.69-25.656 46.504-74.612 7.518-97.859-54.202-32.32-29.62-135.786-4.35-168.209 31.276-40.13 102.184-135.067 19.176-186.351-69.103-42.694-122.422-56.12-103.296-154.133s-18.437-171.644-107.572-188.008c-93.801-17.22-138.491-159.133-224.45-137.114-149.779 38.368-84.175 281.535 60.457 383.664s38.18 136.679 13.903 214.714c-33.142 106.534 118.714 120.284 146.586 172.449 21.85 40.894 4.662 85.386-9.432 111.719z" fill="none"/></clipPath><clipPath id="C"><path d="M1424.463 1564.67l-222.82-.757s-41.556-114.444 13.323-194.925c111.969-164.205-39.661-250.811-97.744-296.585-87.593-69.032-134.677-168.067-5.396-210.673s.192-243.178-157.338-334.277c-154.154-89.146-84.638-414.613 266.725-252.302 209.833 96.932 176.16 319.64 185.892 436.149s182.928 126.734 123.159 268.819c-51.054 121.366-147.573 209.661-74.427 293.468s80.424 177.519-31.374 291.083z" fill="none"/></clipPath><linearGradient id="D" x1="3034.867" y1="294.425" x2="2591.28" y2="1555.146" gradientTransform="translate(4070.4146 -17.6354) rotate(-179.8051951003) scale(1.00000578 -1.00000578)" xlink:href="#AL"><stop offset="0" stop-color="#57297a"/><stop offset=".996" stop-color="#903293"/></linearGradient><linearGradient id="E" x1="-1115.247" y1="196.317" x2="-562.548" y2="1648.58" gradientTransform="translate(1659.3927 96.1150867838) rotate(-176.256049939) scale(1.0000342494 -1.0000342494)" xlink:href="#AL"><stop offset="0" stop-color="#aa80f9"/><stop offset=".996" stop-color="#6165d7"/></linearGradient><clipPath id="F"><path d="M2383.649 1622.786l-178.225-45.906s-45.904-133.51 19.976-169.095 40.655-163.797 35.132-233.721c-14.986-189.723 190.038-172.478 190.268-417.818.061-65.253-21.641-189.715 33.374-241.688 62.677-59.212 108.434-1.127 148.735-50.642 62.988-77.391 165.203-105.153 226.131-25.507 60.133 78.607-12.934 235.083-194.575 360.848-120.09 104.986-121.967 136.416-112.515 212.955 6.62 53.612 57.76 193.271-15.009 249.039s-128.386 116.03-100.35 176.577c42.66 92.13-52.941 184.958-52.941 184.958z" fill="none"/></clipPath><clipPath id="G"><path d="M2147.202 1896.663l212.622 66.644s74.212-96.525 46.233-189.831c-57.085-190.372 113.633-227.083 182.837-253.155 104.365-39.319 179.186-119.485 68.837-199.183s73.338-231.856 251.038-271.065c173.892-38.369 206.028-369.622-177.965-321.134-229.319 28.956-264.553 251.424-309.055 359.538s-212.683 65.498-198.668 219.004c11.972 131.122 77.28 244.466-17.781 302.237s-130.33 144.897-58.098 286.946z" fill="none"/></clipPath><linearGradient id="H" x1="2911.486" y1="777.149" x2="2111.096" y2="1847.504" xlink:href="#AL"><stop offset=".004" stop-color="#e38ddd"/><stop offset="1" stop-color="#9571f6"/></linearGradient><linearGradient id="I" x1="1865.366" y1="1080.659" x2="2334.768" y2="1853.417" gradientTransform="translate(4470.2871 119.3449) rotate(178.6992190336) scale(.9999576891 -.9999576891)" xlink:href="#AL"><stop offset="0" stop-color="#682267"/><stop offset=".996" stop-color="#983e97"/></linearGradient><clipPath id="J"><path d="M2354.718 2011.748l-207.309 4.704c-12.742-29.072-29.391-82.86 13.678-97.189 59.879-19.923 58.097-126.253 40.382-163.348-21.926-45.912-70.785-153.865 21.302-186.12 76.661-26.853 131.619-28.512 133.994-128.345s54.877-163.677 145.447-160.511c95.31 3.331 169.442-125.669 248.664-85.699 138.04 69.646 21.733 293.044-141.461 361.72s-66.649 125.287-59.702 206.715c9.484 111.167-141.781 91.975-180.208 136.935-30.125 35.246-22.895 82.392-14.787 111.137z" fill="none"/></clipPath><linearGradient id="K" x1="2696.376" y1="2088.77" x2="1651.897" y2="1197.781" xlink:href="#AL"><stop offset="0" stop-color="#444b8c"/><stop offset=".996" stop-color="#26264f"/></linearGradient><linearGradient id="L" x1="1824.174" y1="2400.193" x2="1967.35" y2="-1448.716" xlink:href="#K"/><linearGradient id="M" x1="1292.499" y1="1365.226" x2="2439.741" y2="1365.226" xlink:href="#AL"><stop offset="0" stop-color="#4558a7"/><stop offset="1" stop-color="#47489d"/></linearGradient><linearGradient id="N" x1="1869.903" y1="229.647" x2="1869.903" y2="2512.377" xlink:href="#AL"><stop offset="0" stop-color="#29abe2"/><stop offset=".996" stop-color="#00568a"/></linearGradient><linearGradient id="O" x1="1868.901" y1="1112.54" x2="1868.901" y2="860.697" xlink:href="#AL"><stop offset="0" stop-color="#29abe2"/><stop offset=".009" stop-color="#28aae1"/><stop offset=".409" stop-color="#128acd"/><stop offset=".747" stop-color="#0477c0"/><stop offset=".981" stop-color="#0071bc"/></linearGradient><linearGradient id="P" x1="1264.11" y1="468.771" x2="2269.531" y2="2524.632" xlink:href="#AL"><stop offset="0" stop-color="#aa80f9"/><stop offset=".996" stop-color="#6165d7"/></linearGradient><linearGradient id="Q" x1="949.545" y1="622.606" x2="1954.967" y2="2678.469" xlink:href="#P"/><linearGradient id="R" x1="1058.354" y1="569.396" x2="2063.776" y2="2625.257" xlink:href="#P"/><linearGradient id="S" x1="1166.282" y1="516.612" x2="2171.702" y2="2572.472" xlink:href="#P"/><linearGradient id="T" x1="1273.342" y1="464.26" x2="2278.764" y2="2520.122" xlink:href="#P"/><linearGradient id="U" x1="1379.54" y1="412.319" x2="2384.962" y2="2468.182" xlink:href="#P"/><linearGradient id="V" x1="1816.236" y1="1323.046" x2="2475.416" y2="1323.046" xlink:href="#AL"><stop offset="0" stop-color="#646bb1"/><stop offset="1" stop-color="#fb6fbb"/></linearGradient><linearGradient id="W" x1="1246.713" y1="1606.696" x2="1807.794" y2="1627.568" xlink:href="#AL"><stop offset="0" stop-color="#ff9085"/><stop offset="1" stop-color="#fb6fbb"/></linearGradient><linearGradient id="X" x1="2864.777" y1="2793.167" x2="2939.297" y2="2691.186" xlink:href="#AL"><stop offset="0" stop-color="#52c3e6"/><stop offset=".996" stop-color="#5eb5d4"/></linearGradient><linearGradient id="Y" x1="-45.45" y1="4216.544" x2="83.318" y2="4216.544" gradientTransform="translate(2143.6461 -451.6694) rotate(159.5371676354) scale(1.000000885 -1.000000885)" xlink:href="#AL"><stop offset="0" stop-color="#444b8c"/><stop offset=".996" stop-color="#26264f"/></linearGradient><linearGradient id="Z" x1="619.249" y1="4429.961" x2="673.549" y2="4317.571" gradientTransform="translate(1784.9674 -593.7634) rotate(148.2982835842) scale(1.000005445 -1.000005445)" xlink:href="#AL"><stop offset="0" stop-color="#ffc444"/><stop offset=".996" stop-color="#f36f56"/></linearGradient><linearGradient id="a" x1="221.411" y1="4271.271" x2="350.186" y2="4271.271" gradientTransform="translate(2120.7792 -460.7804) rotate(158.3326553067) scale(.9999535639 -.9999535639)" xlink:href="#Y"/><linearGradient id="b" x1="821.07" y1="4435.603" x2="875.37" y2="4323.213" xlink:href="#Z"/><linearGradient id="c" x1="2407.098" y1="3237.521" x2="2707.68" y2="2826.171" xlink:href="#P"/><linearGradient id="d" x1="2417.36" y1="3238.729" x2="2727.945" y2="2845.051" xlink:href="#P"/><linearGradient id="e" x1="2140.328" y1="3331.485" x2="2459.403" y2="2927.463" gradientTransform="translate(544.1346006636 218.7964844025) rotate(-2.1436042909) scale(.7695017445 .8684868887)" xlink:href="#AL"><stop offset="0" stop-color="#53c8ea"/><stop offset="1" stop-color="#63b9d6"/></linearGradient><linearGradient id="f" x1="1860.599" y1="4136.974" x2="2293.216" y2="3589.18" gradientTransform="translate(-203.6298 383.4162) rotate(-20.2851293546)" xlink:href="#Y"/><linearGradient id="g" x1="2107.98" y1="3641.948" x2="1617.676" y2="4185.054" gradientTransform="translate(-203.6298 383.4162) rotate(-20.2851293546)" xlink:href="#Y"/><linearGradient id="h" x1="2853.037" y1="3265.781" x2="2745.535" y2="3083.389" xlink:href="#AL"><stop offset="0" stop-color="#311944"/><stop offset="1" stop-color="#893976"/></linearGradient><linearGradient id="i" x1="2495.365" y1="3041.055" x2="2555.014" y2="3211.282" xlink:href="#h"/><linearGradient id="j" x1="2037.921" y1="3322.166" x2="2183.96" y2="3322.166" gradientTransform="translate(-127.8708 206.0307) rotate(-11.0750919951)" xlink:href="#Z"/><linearGradient id="k" x1="2832.475" y1="3148.758" x2="2695.077" y2="2953.652" gradientTransform="translate(-52.0933 75.7367854739) rotate(-4.3530030356)" xlink:href="#Y"/><linearGradient id="l" x1="2772.927" y1="3342.375" x2="3026.38" y2="2710.566" xlink:href="#h"/><linearGradient id="m" x1="2596.698" y1="2962.644" x2="3255.361" y2="2912.506" xlink:href="#h"/><linearGradient id="n" x1="3032.166" y1="1826.9" x2="3046.712" y2="1439.434" gradientTransform="translate(398.2288 -120.1834) rotate(21.3587908651)" xlink:href="#Z"/><linearGradient id="o" x1="-502.088" y1="2142.191" x2="-640.082" y2="1791.713" gradientTransform="translate(2475.9617 414.7617) rotate(-167.7551862258) scale(1.0000508487 -1.0000508487)" xlink:href="#Y"/><linearGradient id="p" x1="1993.821" y1="1989.274" x2="1989.285" y2="2354.709" gradientTransform="translate(992.1978 145.2596) rotate(8.7370144532)" xlink:href="#Z"/><linearGradient id="q" x1="-548.252" y1="2107.495" x2="-646.974" y2="1856.758" gradientTransform="translate(2475.9617 414.7617) rotate(-167.7551862258) scale(1.0000508487 -1.0000508487)" xlink:href="#Y"/><linearGradient id="r" x1="-644.875" y1="1956.414" x2="-639.74" y2="2002.186" gradientTransform="translate(2475.9617 414.7617) rotate(-167.7551862258) scale(1.0000508487 -1.0000508487)" xlink:href="#AL"><stop offset="0" stop-color="#ffc444"/><stop offset="1" stop-color="#f36f56"/></linearGradient><linearGradient id="s" x1="144.889" y1="1651.527" x2="332.31" y2="1991.961" xlink:href="#P"/><linearGradient id="t" x1="745.517" y1="3402.313" x2="827.745" y2="3402.313" gradientTransform="translate(-84.7215159626 -32.2266) rotate(6.1598597425)" xlink:href="#E"/><linearGradient id="u" x1="902.523" y1="3426.218" x2="984.751" y2="3426.218" gradientTransform="translate(-84.7215159626 -32.2266) rotate(6.1598597425)" xlink:href="#E"/><linearGradient id="v" x1="212.516" y1="2858.648" x2="712.349" y2="2849.949" xlink:href="#K"/><linearGradient id="w" x1="191.491" y1="2823.961" x2="671.754" y2="2873.74" xlink:href="#K"/><linearGradient id="x" x1="1253.328" y1="2076.491" x2="370.757" y2="1487.755" xlink:href="#AL"><stop offset="0" stop-color="#311944"/><stop offset="1" stop-color="#6b3976"/></linearGradient><linearGradient id="y" x1="710.252" y1="2020.29" x2="1526.849" y2="2537.737" gradientTransform="translate(191.9047 -160.8439) rotate(14.3113811557)" xlink:href="#E"/><linearGradient id="z" x1="570.424" y1="1924.001" x2="1344.427" y2="2414.457" gradientTransform="translate(68.8917809091 -44.2863) rotate(5.9175391134)" xlink:href="#E"/><linearGradient id="AA" x1="2518.756" y1="1714.302" x2="2533.727" y2="1315.534" gradientTransform="translate(3063.3712 184.0831927087) rotate(-179.060339496) scale(1.0000344844 -1.0000344844)" xlink:href="#AL"><stop offset="0" stop-color="#ffc444"/><stop offset=".996" stop-color="#f36f56"/></linearGradient><linearGradient id="AB" x1="637.966" y1="1789.327" x2="650.227" y2="1462.747" gradientTransform="translate(68.8917809091 -44.2863) rotate(5.9175391134)" xlink:href="#AA"/><linearGradient id="AC" x1="2586.668" y1="1486.134" x2="2582.631" y2="1811.418" gradientTransform="translate(2789.7134 -426.1559) rotate(170.7759810459) scale(1.0000312495 -1.043087724)" xlink:href="#AA"/><linearGradient id="AD" x1="1290.666" y1="2020.532" x2="408.089" y2="1431.792" xlink:href="#x"/><linearGradient id="AE" x1="594.27" y1="1931.326" x2="946.732" y2="2351.084" xlink:href="#P"/><linearGradient id="AF" x1="1267.2" y1="2055.692" x2="384.628" y2="1466.955" xlink:href="#x"/><linearGradient id="AG" x1="881.27" y1="1819.831" x2="793.362" y2="1923.591" gradientTransform="translate(179.6148 -132.1562) rotate(17.6195990339)" xlink:href="#Z"/><linearGradient id="AH" x1="137.387" y1="1939.812" x2="597.538" y2="2085.954" xlink:href="#W"/><linearGradient id="AI" x1="-2058.58" y1="1069.78" x2="-1890.131" y2="1069.78" gradientTransform="translate(2472.9752 2959.9967901128) rotate(51.4466644088)" xlink:href="#Z"/><linearGradient id="AJ" x1="-1306.515" y1="3973.684" x2="-1138.059" y2="3973.684" gradientTransform="translate(1651.0991 5826.4856) rotate(141.9119583554)" xlink:href="#Z"/><linearGradient id="AK" x1="220.087" y1="1975.362" x2="24.916" y2="2188.103" xlink:href="#P"/><linearGradient id="AL" gradientUnits="userSpaceOnUse"/></defs><g class="B" fill="none"><path d="M0 0h3710v3710H0z" fill="#fff"/><g><path d="M3234.929 1790.591c47.166 240.67 142.762 728.444-86.003 1054.753-408.791 583.094-1809.751 558.063-2423.614-196.177-42.872-52.676-402.423-509.039-292.905-1089.424C573.53 811.851 1415.673 270.751 2084.036 417.384c422.819 92.763 693.484 442.578 803.318 584.706 46.737 60.479 260.776 345.605 347.575 788.501z" fill="#4d1e5e"/><path d="M1155.233 1350.582l2.098 1.598c41.508 31.424 92.421 58.434 155.284 76.522l37.507 7.984c17.697-26.857 29.721-55.569-5.181-76.381-54.202-32.32-29.62-135.786-4.35-168.209 31.277-40.131 102.185-135.068 19.177-186.351-69.103-42.694-122.422-56.12-103.296-154.133s-18.437-171.644-107.572-188.008c-93.801-17.22-138.491-159.133-224.45-137.114-149.779 38.368-84.175 281.535 60.457 383.664s38.18 136.679 13.903 214.714c-33.142 106.533 118.714 120.284 146.586 172.45 9.441 17.669 11.574 36.006 9.837 53.263z" fill="url(#A)"/><g clip-path="url(#B)"><g class="G" opacity=".5" fill="#fcfdfe"><path d="M1238.549 1400.481l4.489.202c14.715-328.182-129.918-661.898-377.458-870.918l-2.898 3.434c246.496 208.139 390.52 540.462 375.867 867.282z"/><path d="M1231.245 1220.867l4.361 1.085c31.138-125.293 162.671-196.3 163.997-197.003l-2.105-3.97c-1.343.71-134.623 72.62-166.253 199.888zm8.365 119.168l4.352-1.117c-32.531-126.782-259.399-199.964-261.688-200.688l-1.356 4.284c2.263.716 226.779 73.149 258.692 197.52zm-95.791-429.063l4.433-.739c-17.127-102.412 78.564-229.669 79.532-230.943l-3.575-2.722c-.981 1.289-97.835 130.1-80.39 234.404zM1041.285 729.27l3.208-3.148c-82.88-84.434-242.644-88.873-244.251-88.906l-.098 4.493c1.586.031 159.554 4.441 241.141 87.561z"/></g></g><g clip-path="url(#C)"><path d="M1424.463 1564.67l-222.82-.757s-41.556-114.444 13.323-194.925c111.969-164.205-39.661-250.811-97.744-296.585-87.593-69.032-125.994-157.972-20.182-215.222 119.72-64.775 14.978-238.63-142.552-329.728-154.154-89.146-84.638-414.613 266.725-252.302 209.833 96.932 176.16 319.64 185.892 436.149s182.928 126.734 123.159 268.819c-51.054 121.366-147.573 209.661-74.427 293.468s80.424 177.519-31.374 291.083z" fill="url(#D)"/><g class="G" opacity=".5" fill="#beb8f2"><path d="M1327.956 1585.023l-4.624-.864c.535-2.864 53.068-289.794 19.378-589.941-31.035-276.516-143.735-621.159-504.38-692.739l.915-4.614c160.542 31.863 286.142 119.544 373.312 260.606 69.634 112.685 115 259.482 134.839 436.316 33.748 300.834-18.905 588.364-19.44 591.235z"/><path d="M1246.437 617.991l-4.667-.599c19.87-155.297-38.57-376.191-39.162-378.404l4.543-1.219c.594 2.224 59.272 224.013 39.285 380.221zm-60.657-92.397c-158.014-99.196-306.121-52.36-307.597-51.875l-1.467-4.468c1.499-.495 151.613-48.052 311.565 52.358l-2.501 3.985zm168.264 666.05c-51.842-221.956-353.292-277.372-356.274-277.667l.154-4.697c2.954.012 308.398 57.366 360.699 281.294l-4.58 1.07zm1.772-93.97l-4.604-.975c30.101-142.297 184.896-239.753 186.458-240.721l2.48 3.996c-1.545.959-154.657 97.388-184.334 237.7zm-25.211 441.152c-6.49-86.344-129.5-155.112-130.74-155.798l2.27-4.118c5.16 2.842 126.481 70.673 133.161 159.564l-4.69.352zm13.353-67.78l-4.634-.808c11.752-67.446 114.015-142.278 147.62-166.868 4.749-3.476 8.848-6.475 9.473-7.153l3.504 3.138c-.868.969-3.587 2.971-10.199 7.811-33.226 24.313-134.337 98.303-145.763 163.881z"/></g></g><path d="M2436.59 1437.828c24.524 52.964 1.153 105.942-21.279 141.598-5.349.032-8.457 1.517-13.862 2.832-48.783 11.868-71.662 5.829-121.255 9.418-10.674.773-42.385-7.182-55.125-11.331l-23.624-8.148s-41.926-128.828 23.955-164.412 40.655-163.797 35.132-233.721c-14.985-189.723 190.038-172.478 190.268-417.818.061-65.253-21.641-189.715 33.373-241.688 62.677-59.212 108.434-1.127 148.735-50.642 62.988-77.391 165.203-105.153 226.131-25.507 60.133 78.607-12.934 235.083-194.575 360.848-120.09 104.986-121.967 136.416-112.515 212.955 6.62 53.612 57.76 193.271-15.009 249.039s-128.386 116.03-100.35 176.578z" fill="url(#E)"/><g clip-path="url(#F)"><g class="G" opacity=".5" fill="#fcfdfe"><path d="M2306.016 1593.673l-3.62-.452 8.853-64.566c23.593-157.484 61.032-307.065 111.281-444.594 42.579-116.531 94.927-226.058 155.592-325.537 48.787-80.001 103.193-153.969 161.707-219.848 41.136-46.311 83.86-88.179 126.99-124.435 7.515-6.32 15.554-12.362 23.329-18.206 10.358-7.786 21.07-15.836 30.622-24.606l2.466 2.689c-9.684 8.891-20.467 16.996-30.895 24.835-7.737 5.814-15.735 11.827-23.174 18.083-42.994 36.142-85.592 77.884-126.61 124.065-58.37 65.715-112.645 139.508-161.32 219.325-60.54 99.275-112.784 208.583-155.28 324.889-50.165 137.295-87.543 286.639-111.098 443.88l-8.842 64.478z"/><path d="M2512.442 884.49l-3.304-1.549c66.521-141.777 8.109-403.711 7.51-406.34l3.558-.81c.601 2.642 59.288 265.787-7.765 408.699zm-151.315 412.919l-3.461-1.154c33.934-101.641 224.216-180.098 226.134-180.879l1.376 3.381c-1.903.774-190.647 78.6-224.049 178.653zm-14.269 59.335l-3.61-.526c10.068-69.22-13.185-168.998-65.477-280.949q-2.629-5.63-2.539-6.317l3.617.481-1.809-.241 1.76-.453c.132.395 1.124 2.52 2.277 4.984 52.59 112.591 75.952 213.101 65.781 283.02zm-35.377 197.629l-3.308-1.536c32.443-69.879 143.337-97.458 144.452-97.728l.861 3.546c-1.1.267-110.303 27.439-142.004 95.718zm-10.981 39.583c-13.75-60.585-45.344-119.205-96.59-179.206l2.776-2.371c51.638 60.464 83.488 119.594 97.372 180.77l-3.558.807zm408.231-1013.491l-3.211-1.731c41.378-76.765 67.054-167.003 75.49-196.656 2.043-7.178 2.77-9.702 3.176-10.537l3.281 1.596c-.302.642-1.469 4.745-2.947 9.941-8.464 29.747-34.222 120.273-75.789 197.388zm-85.738 114.862l-2.559-2.601c58.28-57.367 221.818-55.532 228.752-55.426l-.057 3.649c-1.682-.025-168.943-1.917-226.136 54.378z"/></g></g><g clip-path="url(#G)"><path d="M2147.202 1896.663l212.622 66.644s74.212-96.525 46.233-189.831c-57.085-190.372 113.633-227.083 182.837-253.155 104.365-39.319 167.857-112.487 84.306-199.048-94.534-97.939 57.869-231.991 235.569-271.2 173.892-38.369 206.028-369.622-177.965-321.134-229.319 28.956-264.553 251.424-309.055 359.538s-212.683 65.498-198.668 219.004c11.972 131.122 77.28 244.466-17.781 302.237s-130.33 144.897-58.098 286.946z" fill="url(#H)"/><g class="G" opacity=".5" fill="#beb8f2"><path d="M2233.04 1945.241l4.669.575c.356-2.892 37.029-292.276 159.886-568.192 113.183-254.193 324.805-548.635 690.213-507.831l.523-4.675c-162.663-18.165-308.893 27.44-434.632 135.547-100.443 86.359-188.068 212.571-260.441 375.132-123.12 276.552-159.86 566.546-160.218 569.444z"/><path d="M2603.108 1048.11l4.63.84c28.011-154.037 150.499-346.925 151.732-348.856l-3.962-2.535c-1.239 1.94-124.224 195.61-152.4 350.551zm85.753-69.735c180.61-46.781 307.625 42.64 308.886 43.549l2.75-3.815c-1.279-.925-129.991-91.641-312.815-44.288l1.179 4.554zm-361.758 584.009c116.52-195.896 420.617-157.581 423.548-156.96l1.273-4.524c-2.819-.882-311.31-38.557-428.864 159.08l4.042 2.404zm26.722-90.108l4.683.463c14.329-144.738-103.759-284.433-104.955-285.828l-3.572 3.06c1.183 1.381 117.976 139.588 103.843 282.306zm-109.343 428.13c32.291-80.341 170.335-108.702 171.725-108.98l-.919-4.612c-5.778 1.149-141.928 29.126-175.17 111.838l4.364 1.754zm7.763-68.646l4.662.631c9.189-67.843-65.664-170.091-90.262-203.689l-6.867-9.683-4.289 1.932c.534 1.187 2.521 3.917 7.36 10.529 24.32 33.221 98.331 134.317 89.396 200.28z"/></g></g><path d="M2348.456 1950.518l-2.392 1.11c-47.289 21.774-102.816 37.217-168.097 41.379l-38.347-.259c-11.515-30.032-17.09-60.656 21.467-73.485 59.88-19.922 58.097-126.254 40.382-163.348-21.926-45.913-70.785-153.865 21.301-186.12 76.661-26.853 131.619-28.512 133.994-128.345s54.877-163.677 145.447-160.511c95.31 3.332 169.442-125.669 248.664-85.699 138.041 69.647 21.733 293.045-141.461 361.721s-66.649 125.287-59.702 206.715c9.484 111.166-141.781 91.975-180.209 136.936-13.016 15.229-19.038 32.679-21.049 49.907z" fill="url(#I)"/><g clip-path="url(#J)"><g class="G" opacity=".5" fill="#fcfdfe"><path d="M2256.366 1981.354l-4.428-.767c56.126-323.682 269.068-618.539 555.729-769.504l2.093 3.976c-285.452 150.33-497.501 443.958-553.394 766.295z"/><path d="M2302.082 1807.503l-4.492.123c-3.497-129.057-116.706-226.662-117.85-227.632l2.909-3.425c1.159.982 115.881 99.843 119.433 230.935zm-33.768 114.589l-4.011-2.026c59.006-116.835 296.298-139.574 298.689-139.789l.404 4.475c-2.364.213-237.198 22.727-295.082 137.34zm185.723-398.47l-4.171-1.674c38.727-96.342-27.394-241.184-28.066-242.636l4.076-1.89c.681 1.469 67.604 148.079 28.161 246.2zm139.172-155.435l-2.457-3.764c99.082-64.66 256.071-34.676 257.647-34.363l-.869 4.409c-1.556-.31-156.783-29.936-254.321 33.717z"/></g></g><path d="M2441.652 233v2182.696c0 32.641-27.886 39.665-59.506 40.699l-1083.806 56.05-16.419.537c-33.691 1.102-61.304-25.628-61.304-59.402V195.114c0-33.774 27.612-60.504 61.304-59.402l22.282.729 1087.773 84.603c31.62 1.034 49.675-20.686 49.675 11.955z" fill="url(#K)"/><path d="M2475.416 233v2182.696c0 32.641-25.829 60.192-57.449 61.226l-1102.281 36.06c-33.691 1.102-61.304-25.628-61.304-59.402V195.114c0-33.774 27.612-60.504 61.304-59.402l1102.281 36.061c31.62 1.034 57.449 28.586 57.449 61.226z" fill="url(#L)"/><path d="M2439.741 352.992v2022.009c0 30.474-24.138 56.166-53.685 57.094l-1036.493 32.56c-31.363.985-57.064-23.953-57.064-55.421V321.342c0-31.467 25.701-56.464 57.064-55.549l1036.493 30.226c29.547.862 53.685 26.499 53.685 56.973z" fill="url(#M)"/><path d="M1895.785 221.677c0 11.501-9.162 20.548-20.469 20.205-11.315-.342-20.493-9.954-20.493-21.469s9.178-20.56 20.493-20.205c11.308.355 20.469 9.967 20.469 21.468z" fill="#de8bdf"/><path d="M2278.893 1580.922l-827.799 11.1c-10.468.14-18.958-8.239-18.958-18.715v-181.261c0-10.476 8.491-19.027 18.958-19.097l827.799-5.598c9.942-.067 17.998 8.148 17.998 18.35v176.509c0 10.202-8.055 18.58-17.998 18.713zm-1.88 333.883l-823.939 19.609c-11.56.275-20.937-8.881-20.937-20.452v-177.299c0-11.57 9.377-21.111 20.937-21.309l823.939-14.132c10.982-.188 19.878 8.793 19.878 20.06v172.65c0 11.267-8.897 20.612-19.878 20.874z" fill="#f4f7fa"/><path d="M2195.308 825.734c0 181.937-144.724 329.45-325.05 329.478-182.348.029-331.676-150.443-331.676-336.089s149.329-333.112 331.676-329.412c180.327 3.659 325.05 154.085 325.05 336.022z" fill="#fff"/><path d="M2004.281 723.853c0 74.966-59.855 135.176-133.934 134.481-74.349-.698-134.821-62.439-134.821-137.901s60.472-135.664 134.821-134.469c74.079 1.19 133.934 62.924 133.934 137.89z" fill="url(#N)"/><path d="M1870.258 1155.212c79.712-.013 152.423-28.831 208.723-76.571-19.159-99.108-105.043-174.481-208.723-175.267-104.345-.791-191.798 74.149-211.435 174.339 57.573 48.444 131.331 77.511 211.435 77.498z" fill="url(#O)"/><path d="M1984.203 1503.819l-451.788 4.929c-15.37.168-27.956-12.313-27.956-27.736h0c0-15.423 12.586-28.157 27.956-28.298l451.788-4.159c14.936-.138 27.147 12.174 27.147 27.359h0c0 15.185-12.21 27.742-27.147 27.905z" fill="url(#P)"/><path d="M1572.053 1821.962c0 19.705-15.914 36.022-35.566 36.445-19.675.424-35.643-15.241-35.643-34.988s15.967-36.065 35.643-36.447c19.652-.381 35.566 15.285 35.566 34.99z" fill="url(#Q)"/><path d="M1705.26 1819.236c0 19.625-15.785 35.874-35.278 36.294-19.516.421-35.354-15.182-35.354-34.849s15.838-35.918 35.354-36.296c19.493-.378 35.278 15.226 35.278 34.851z" fill="url(#R)"/><path d="M1837.391 1816.533c0 19.546-15.658 35.728-34.993 36.144-19.358.417-35.068-15.123-35.068-34.711s15.71-35.771 35.068-36.146c19.335-.375 34.993 15.167 34.993 34.712z" fill="url(#S)"/><path d="M1968.459 1813.851c0 19.467-15.532 35.583-34.712 35.996-19.203.414-34.786-15.065-34.786-34.574s15.584-35.625 34.786-35.997c19.18-.372 34.712 15.109 34.712 34.576z" fill="url(#T)"/><path d="M2098.477 1811.191c0 19.389-15.408 35.439-34.434 35.849-19.049.41-34.508-15.008-34.508-34.438s15.459-35.481 34.508-35.85c19.027-.369 34.434 15.051 34.434 34.44z" fill="url(#U)"/><path d="M1870.205 1163.289c-90.442 0-175.639-35.801-239.91-100.815-64.35-65.095-99.79-151.517-99.79-243.35 0-92.609 35.955-178.846 101.242-242.821 64.156-62.867 148.893-96.509 238.674-94.666 89.273 1.812 173.013 38.612 235.793 103.621 62.661 64.885 97.17 150.289 97.17 240.476 0 90.218-34.528 174.962-97.225 238.621-62.818 63.782-146.596 98.919-235.9 98.933h-.054zm-6.699-665.569c-82.937 0-160.991 31.852-220.453 90.12-62.162 60.911-96.395 143.05-96.395 231.283 0 87.554 33.783 169.945 95.125 231.995 61.209 61.916 142.337 96.015 228.422 96.018h.05c174.781-.028 316.976-144.209 316.976-321.402 0-177.283-142.267-324.399-317.138-327.948l-6.587-.066z" fill="#fff"/><path class="e" d="M2475.416 231.753c0-32.391-25.696-58.941-58.07-60l-601.11-19.665c222.967 236.285 273.101 434.524 278.824 569.996 16.334 386.69-316.792 555.164-254.852 978.053 16.981 115.931 54.534 188.74 69.202 389.008 12.505 170.737-.566 312.056-13.588 404.858l522.146-17.082c31.62-1.034 57.448-28.585 57.448-61.226V231.753z" opacity=".3" fill="url(#V)"/><path class="f" d="M1585.404 1321.13c6.338-186.263-57.487-264.131-74.401-283.205-11.946-13.473-23.01-23.017-105.604-91.202L1256.596 824.32l-2.215 1565.406c24.729-200.286 72.257-351.332 108.417-447.784 101.224-269.993 214.473-381.813 222.605-620.813z" opacity=".3" fill="url(#W)"/><path d="M3068.588 2943.814c41.628-25.15 24.182-158.395-37.005-250.193-86.88-130.344-268.737-187.315-304.045-146.206-36.134 42.071 77.968 190.657 96.503 214.792 67.236 87.558 195.307 211.356 244.547 181.607z" fill="url(#X)"/><path d="M3541.269 3494.978c-7.135 9.442-7.505 25.692.082 33.006 7.456 7.19 17.106.44 46.024-1.268 30.977-1.827 39.693 4.749 60.171-2.912 8.273-3.1 22.747-10.121 21.923-16.153-.579-4.242-8.402-5.761-34.633-12.027-37.235-8.891-37.135-9.567-44.925-10.154-19.57-1.478-39.218-2.961-48.641 9.508z" fill="url(#Y)"/><path d="M3540.682 3443.894l32.533 43.145c-.141 3.011-11.765 17.179-26.529 16.383l-39.084-39.1 33.08-20.427z" fill="url(#Z)"/><path d="M3373.193 3604.813c-6.936 9.592-6.963 25.846.775 32.999 7.606 7.032 17.112.081 45.988-2.236 30.931-2.48 39.784 3.913 60.096-4.178 8.207-3.274 22.529-10.597 21.578-16.611-.668-4.227-8.521-5.582-34.879-11.294-37.414-8.107-37.327-8.784-45.129-9.208-19.595-1.064-39.272-2.134-48.43 10.528z" fill="url(#a)"/><path d="M3371.938 3554.751l32.533 43.145c-.141 3.011-11.764 17.179-26.529 16.383l-39.083-39.099 33.079-20.428z" fill="url(#b)"/><path d="M2386.91 2568.817c48.692-18.653 123.335-41.005 216.173-44.466 104.523-3.898 188.468-7.03 248.276 40.203 198.985 157.15 101.445 571.281 87.064 617.355-17.102 54.791-49.639 92.01-49.639 92.01-19.518 22.326-38.672 35.369-49.045 42.233-149.683 99.043-242.73 160.61-340.976 135.454-13.071-3.348-72.471-23.948-105.259-73.368-5.845-8.809-9.498-20.099-10.422-35.874-15.258-260.69 15.485-522.441 3.829-773.546z" fill="url(#c)"/><path class="m" d="M2472.732 2879.538c-19.965-54.582.666-117.083-43.804-144.341-16.296-9.988-36.545-14.215-58.6-13.719l11.361 583.852c1.573 66.142 9.845 69.412 73.989 127.347 74.321 67.127 135.479 45.483 245.273 23.456-143.85-88.372-179.625-136.425-164.967-214.959 17.07-91.458 184.529-118.543 177.76-183.559-7.176-68.907-197.369-58.755-241.012-178.077z" opacity=".3" fill="url(#d)"/><path d="M2428.611 2578.319c-38.237-26.937-125.136 47.851-172.438 112.59-21.985 30.086-98.53 134.843-73.453 270.781 4.085 22.152 22.96 125.732 103.859 173.789 72.434 43.029 167.495 27.708 241.591-39.843l30.196-32.589 29.454-38.804c-16.74-14.577-45.037-35.45-84.15-48.058-59.602-19.214-86.163 6.664-101.008-13.725-18.278-25.102 21.729-67.71 31.478-177.371 2.63-29.592 37.182-176.683-5.528-206.77z" fill="url(#e)"/><path d="M2522.522 3420.117c6.081 108.6 46.911 48.445 139.334-48.997 97.339-102.625 326.367-282.989 479.233-214.131 113.85 51.283 102.8 202.994 284.811 298.213 32.061 16.772 60.127 26.39 77.376 31.617l59.153-54.71c-10.582-56.711-57.814-272.951-255.286-409.262-47.742-32.955-138.85-96.434-254.063-94.948-311.474 4.019-536.169 392.059-530.559 492.219z" fill="url(#f)"/><path d="M2379.017 3369.74c1.303 63.187 42.563 121.108 89.045 149.389 103.188 62.774 257.716-4.959 344.268-74.221 105.317-84.273 105.279-166.839 159.096-166.433 83.622.631 98.201 200.588 284.811 298.213 32.06 16.772 60.125 26.387 77.376 31.616l59.15-54.712c-32.363-122.45-82.462-211.425-119.408-266.803-46.085-69.074-90.443-135.558-176.347-183.743-90.45-50.736-176.873-53.09-213.59-53.663-231.62-3.611-507.8 155.498-504.401 320.357z" fill="url(#g)"/><path d="M3007.782 2990.173l-573.376 103.397 166.39 43.606 415.746-110.017-8.76-36.986z" fill="url(#h)"/><path d="M2417.203 3112.713l.001.005c2.095 10.698 10.662 18.945 21.432 20.632l196.701 35.849-8.889-49.814-192.042-25.814c-10.675-.925-19.26 8.631-17.203 19.142z" fill="url(#i)"/><path d="M2509.333 3067.716c-3.661-.095 8.904-45.18 26.006-43.61s105.176 31.928 116.063 49.398l10.887 17.468s-33.977 9.452-56.785 6.452-66.391-28.933-96.171-29.708z" fill="url(#j)"/><path d="M2608.878 2761.577l-12.582 375.922c-.435 12.971 19.032 30.766 31.912 29.171l597.857-82.571a21.12 21.12 0 0 0 18.429-18.974l47.999-365.802c1.253-13.273-23.33-25.015-36.593-23.633l-628.109 65.586c-10.489 1.096-18.561 9.76-18.914 20.301z" fill="url(#k)"/><path d="M2623.433 2771.401l-12.585 375.926c-.431 12.972 10.826 23.261 23.707 21.668l606.067-75.069c9.834-1.218 17.498-9.11 18.43-18.973l34.624-366.442c1.254-13.277-9.956-24.379-23.219-22.993l-628.11 65.586a21.12 21.12 0 0 0-18.914 20.298z" fill="url(#l)"/><path class="v" d="M3001.903 3024.222c-54.824-18.47-39.343-62.823-106.129-111.54-88.107-64.271-170.113-27.253-203.797-79.701-10.488-16.336-16.898-42.507-4.146-86.626l-45.484 4.748a21.12 21.12 0 0 0-18.914 20.298l-12.585 375.926c-.43 12.97 10.828 23.261 23.707 21.668l606.067-75.069a21.12 21.12 0 0 0 18.43-18.973l4.777-50.566c-19.237-8.867-42.001-16.528-68.13-19.79-90.614-11.312-130.678 40.89-193.797 19.626z" fill="url(#m)" opacity=".3"/><path d="M2607.499 2381.182c1.775 38.738-1.4 69.632-4.701 90.83-3.783 24.289-6.925 30.644-11.045 35.86 0 0-1.304 1.653-2.788 3.134-3.782 3.774-51.312 13.035-65.317 16.305-1.483.346-28.916 7.015-36.792 21.767a2.75 2.75 0 0 0-.289.829c-2.708 14.749 81.551 61.521 166.226 46.322 51.822-9.303 98.111-40.798 94.619-56.299-3.515-15.598-55.242-5.222-71.815-33.061-11.53-19.366-.484-47.884 12.944-71.66-14.817-25.427-66.225-28.602-81.042-54.028z" fill="url(#n)"/><path d="M2718.67 2426.365c33.108-9.611 54.47-123.639 26.612-137.423-13.323-6.592-23.194 17.02-76.291 38.146-42.501 16.91-60.462 11.444-72.225 30.095-11.622 18.425-4.477 45.105-.818 64.026 1.588 8.21 6.901 12.079 11.091 18.946l29.508 49.771c2.858-5.834 6.82-12.962 12.265-20.437 2.097-2.876 10.434-14.076 35.098-30.832 15.76-10.708 30.972-11.192 34.761-12.292z" fill="url(#o)"/><path d="M2612.941 2466.285s13.633 39.799 56.813 46.432c38.661 5.938 63.12-78.3 42.784-101.816-6.786-7.843-22.497-13.949-36.54-13.164-8.295.465-11.658 3.125-25.225 3.618-12.518.457-15.57-1.593-19.807.624-5.3 2.775-10.61 11.274-8.667 37.908-5.647-8.968-13.75-13.721-20.58-12.167-1.089.249-4.099 1.45-6.168 3.823-7.484 8.585-1.322 23.021 17.389 34.743z" fill="url(#p)"/><path d="M2630.371 2396.487c1.537 1.776-5.598 7.393-8.16 17.006-4.977 18.659 9.098 45.486 28.128 51.702 11.251 3.674 15.945-2.56 35.401-.369 12.046 1.356 21.515 5.018 27.382 7.726 1.41 21.983-8.761 41.344-24.683 47.851-17.142 7.006-34.758-3.432-42.122-7.798-4.926-2.919-20.721-12.238-26.17-29.814-5.676-18.317 5.586-26.113-2.619-39.465-4.137-6.734-10.651-10.694-15.138-22.954-1.219-3.331-1.892-6.187-2.268-8.093 12.135-8.247 28.026-18.364 30.249-15.791z" fill="url(#q)"/><path d="M2697.595 2477.154s-9.182 2.481-23.229-1.459c-.683-.194-1.492-.16-1.658.181-.624 1.278 7.164 9.342 16.093 8.836 6.341-.362 12.235-4.986 11.75-6.602-.208-.681-1.576-.901-2.956-.957z" fill="url(#r)"/><path d="M57.231 2051.434c-15.89-46.678-4.761-100.337 19.762-137.844 41.441-63.378 95.454-41.35 149.553-111.633 34.995-45.463 66.842-84.288 105.699-113.366 28.585-21.392 96.226-45.622 122.65-28.803 79.062 50.328-66 478.845-225.934 503.239-63.993 9.759-147.844-41.429-171.73-111.593z" fill="url(#s)"/><path d="M360.618 3404.643c4.22 9.006 8.988 22.202 10.247 38.62.552 7.195.331 13.721-.243 19.378-4.641 6.841-26.34 30.33-55.643 36.129-18.128 3.588-47.516-11.781-14.224-32.581s38.267-25.808 28.482-78.977c-2.517-13.679-1.528-18.684.62-19.646 5.019-2.248 19.316 18.73 30.762 37.078z" fill="url(#t)"/><path d="M514.148 3445.257c4.22 9.006 8.988 22.202 10.246 38.62a109.18 109.18 0 0 1-.243 19.378c-4.641 6.841-26.339 30.331-55.643 36.129-18.128 3.588-47.516-11.781-14.224-32.581s38.267-25.808 28.482-78.977c-2.517-13.679-1.528-18.684.62-19.646 5.019-2.248 19.316 18.73 30.763 37.078z" fill="url(#u)"/><path d="M673.815 2334.44l33.021 201.082c-24.106 63.409-46.524 132.497-65.519 207.112-68.611 269.526-111.395 529.113-114.524 715.064l-45.309 16.392c-27.062-102.185-18.885-256.696-42.945-438.897-28.425-215.259-9.096-383.541-18.992-384.131-9.484-.566-36.046 153.494-36.094 329.427-.051 185.979-21.443 335.709-7.655 443.203l-54.287 3.241c-50.112-142.153-72.008-311.518-97.378-535.465-17.618-155.521-38.41-362.125 65.489-575.278 10.375-21.285 46.596-68.534 53.387-80.21 119.146 22.797 211.659 75.663 330.805 98.46z" fill="url(#v)"/><path class="AF" d="M641.318 2742.635c18.994-74.615 41.413-143.703 65.519-207.112l-33.021-201.082c-119.146-22.797-211.659-75.662-330.805-98.46-6.791 11.675-43.012 58.924-53.386 80.209-35.024 71.855-55.839 142.955-67.423 211.614 230.51-2.518 297.219 45.483 315.584 89.727 29.236 70.435-59.68 141.86-28.221 284.405 9.461 42.87 23.591 63.995 25.25 117.697 2.177 70.474-20.824 77.307-24.426 148.996-3.941 78.437-31.107 155.098-18.37 210.697 7.919 34.565 17.193 62.669 24.319 82.154l10.457-3.784c3.13-185.95 45.913-445.537 114.524-715.062z" fill="url(#w)" opacity=".25"/><path d="M575.048 1404.265c7.391 9.877-3.589 23.129-5.781 71.371a340.35 340.35 0 0 0 1.815 53.711c.419 11.89 1.091 22.915 2.019 32.655.681 7.146 1.409 12.73 2.436 18.674a228.25 228.25 0 0 0 8.097 32.495c.231.697-.114 1.444-.775 1.73a1.29 1.29 0 0 1-.121.045c-.738.245-1.532-.157-1.775-.896-3.514-10.667-6.273-21.735-8.2-32.894-1.039-6.018-1.776-11.667-2.463-18.888-.489-5.133-.902-10.642-1.251-16.415-1.579 15.206-1.903 32.003 3.504 54.433 16.408 68.076-36.432 112.886-78.078 114.688-48.028 2.078-80.584-35.981-90.652-48.435-40.58-50.199-48.393-132.007-10.227-191.838 49.998-78.38 163.341-94.642 181.454-70.435z" fill="#732b8d"/><path d="M453.6 1469.804c2.055-7.609 11.349-38.635 39.748-58.086 53.881-36.905 140.247-7.292 189.766 36.167 51.816 45.475 30.267 76.934 81.202 127.428 55.322 54.844 94.145 30.892 171.036 83.869 30.245 20.838 111.754 76.996 117.202 164.602 4.708 75.701-48.831 151.509-114.34 180.757-112.15 50.072-252.596-39.349-318.86-121.581-63.555-78.869-20.672-98.175-111.033-250.499-32.671-55.074-70.075-105.796-54.72-162.657z" fill="url(#x)"/><path d="M372.78 1690.601c-40.967 41.471-51.998 91.332-55.226 113.616-10.041 69.322 17.186 125.864 23.58 140.718 30.21 70.177 19.082 208.498-157.017 506.356 16.739 13.954 74.453 117.236 101.75 67.707 37.216-67.525 206.054-542.642 43.215 20.396-2.146 7.419 14.448 5.926 21.992 8.743 54.087 20.195 119.043 34.898 192.847 33.979 115.674-1.441 203.815-40.645 250.413-65.847-31.596-73.668-64.675-173.369-78.827-294.374-26.998-230.841 29.179-417.008 68.331-517.397-35.702-24.679-148.777-96.152-282.564-73.054-33.335 5.755-85.345 15.475-128.496 59.156z" fill="url(#y)"/><path class="AJ" d="M715.509 2221.895c-26.998-230.841 29.179-417.009 68.331-517.397-35.702-24.679-148.777-96.152-282.564-73.054-33.335 5.756-85.345 15.476-128.495 59.157-32.618 33.02-46.231 71.312-52.065 96.816l4.017-.618c82.394-11.379 177.553 54.905 210.085 117.612 54.29 104.644-70.598 190.145-67.474 355.984 1.689 89.65 40.652 195.653 159.769 314.029 74.874-12.934 132.56-39.407 167.223-58.153-31.596-73.669-64.676-173.37-78.827-294.376z" opacity=".3" fill="url(#z)"/><path d="M532.556 1548.422c-11.738 23.825-21.649 53.627-8.724 73.616 7.874 12.179 20.907 18.963 33.778 25.357 30.416 15.11 44.531 8.973 50.535 18.14 13.214 20.176-24.202 97.172-85.234 103.858-60.739 6.653-115.707-59.523-106.565-87.475 8.249-25.222 68.043-17.315 78.732-49.187 5.382-16.046-4.47-33.866-13.116-45.934l-7.153.626 57.749-39z" fill="url(#AA)"/><path class="AL" d="M608.144 1665.535c-6.004-9.166-20.119-3.032-50.535-18.141-12.871-6.392-25.903-13.179-33.777-25.357-12.924-19.988-3.014-49.79 8.724-73.614l-57.749 38.999 7.153-.625c6.862 9.578 14.356 22.776 14.517 35.84 4.198 2.902 7.743 6.088 10.255 9.18-7.966 17.183-10.668 32.017-11.704 41.611-1.616 14.959-2.815 26.07 3.603 36.568 7.002 11.452 18.966 15.466 29.426 18.974 23.242 7.796 44.961 5.207 59.229 1.789 19.726-24.652 28.277-53.896 20.857-65.225z" fill="url(#AB)" opacity=".4"/><path d="M521.897 1571.38s2.02 30.591-27.751 35.712c-36.682 6.31-56.899-89.888-48.894-96.911 9.283-8.145 20.959 6.068 44.143-3.43 9.762-3.999 16.357-18.509 23.844-5.303 8.517 15.025 8.294 44.171 8.294 44.171s7.525-8.646 10.306-.214c3.639 11.035-3.679 19.529-9.942 25.976z" fill="url(#AC)"/><path d="M467.166 1459.966c-12.991 10.764-21.88 33.339-14.947 45.868 9.96 17.999 46.376 4.057 58.399 26.058 5.271 9.646 3.616 22.105 6.854 22.234 2.682.108 5.153-8.387 7.426-15.352 12.529-38.395 22.774-41.789 20.956-53.341-3.694-23.482-52.014-47.569-78.687-25.467z" fill="url(#AD)"/><path d="M682.743 1701.193c40.46 2.565 44.524-9.568 89.305 23.239 128.594 94.204 212.004 359.92 84.489 488.345-70.924 71.431-200.357 115.042-310.468 60.523-89.637-44.38-122.697-132.12-130.725-155.617l4.426-70.655c50.35 54.315 93.603 68.041 124.979 69.721 53.407 2.86 75.593-29.015 166.946-34.048 35.589-1.961 55.467 1.596 59.617-8.087 8.58-20.022-69.088-52.28-105.664-111.627-26.664-43.262-42.819-119.311 17.096-261.795z" fill="url(#AE)"/><path d="M524.926 1502.458c-9.12 8.104 5.778 39.613 35.946 102.3 18.568 38.583 27.852 57.874 34.215 66.458 34.262 46.221 96.076 85.493 162.38 88.659 45.499 2.172 53.925-14.528 90.366-4.499 54.973 15.129 82.002 65.851 84.797 63.619 3.088-2.468-26.763-66.898-94.061-125.023-55.064-47.559-72.498-36.742-159.84-103.756-6.337-4.862-33.148-25.56-71.297-49.678-44.849-28.353-73.434-46.142-82.507-38.079z" fill="url(#AF)"/><path d="M166.923 1857.331l93.519 231.357c1.586 4.286 5.06 7.601 9.415 8.985l107.807 34.242c11.136 3.537 21.795-6.602 18.819-17.901l-57.632-218.73c-1.319-5.006-5.092-16.113-14.638-19.145l-131.315-37.955c-11.702-3.468-30.207 7.701-25.974 19.149z" fill="url(#AG)"/><path d="M165.737 1860.996l82.803 223.911c1.586 4.286 5.059 7.601 9.415 8.985l107.807 34.242c11.136 3.537 21.795-6.602 18.818-17.902l-57.632-218.729a14.82 14.82 0 0 0-10.118-10.433l-132.979-39.424c-11.702-3.469-22.347 7.903-18.113 19.351z" fill="url(#AH)"/><path d="M425.529 2065.966l-11.342-10.585s-16.115-22.044-28.257-32.72-24.032-12.827-36.923-2.554-1.94 27.265 7.378 42.091c5.67 9.019 21.649 14.738 34.95 18.197 9.351 2.432 25.728 14.644 25.728 14.644l8.465-29.072z" fill="url(#AI)"/><path d="M178.315 1964.75l10.676-11.258s22.176-15.934 32.948-27.99 13.022-23.927 2.854-36.9-27.249-2.162-42.149 7.036c-9.065 5.596-14.913 21.53-18.479 34.802-2.508 9.333-14.852 25.611-14.852 25.611l29.002 8.7z" fill="url(#AJ)"/><path d="M147.536 1942l41.472 20.679c4.231 5.384 54.598 71.505 27.71 134.907-3.498 8.248-16.723 39.433-42.802 44.954-40.246 8.522-98.876-46.646-96.984-105.867 1.268-39.692 29.562-76.154 70.604-94.673z" fill="url(#AK)"/></g></g></svg>